# xmcd
#
# Track frame offsets: 
#        183
#        11933
#        25083
#        36583
#        48958
#        59658
#        70183
#        79033
#        97633
#        109233
#        127383
#        141108
#        152858
#        161508
#        178233
#        190548
#
# Disc length: 2720 seconds
#
# Revision: 0
# Processed by: cddbd v1.4PL0 Copyright (c) Steve Scherf et al.
# Submitted via: ExactAudioCopy v0.95a3
#
DISCID=de0a9e10
DTITLE=Various Artist - Blues Vol. 2
DYEAR=1995
DGENRE=Blues
TTITLE0=Rufus Thomas - Can't Ever Let You Go
TTITLE1=Booker T. and MGs - Green Onions
TTITLE2=Marvin Gaye - Just Squeeze Me
TTITLE3=Solomon Burke - Everybody Needs Somebody
TTITLE4=James Brown - Tell Me What I Did Wrong
TTITLE5=Duan Eddy - Peter Gunn
TTITLE6=Ray Charles - Hit The Road Jack
TTITLE7=John Lee Hooker - Shake It Baby
TTITLE8=Howlin' Wolf - Long Green Stuff
TTITLE9=Tommy Tucker - Hi Heel Sneakers
TTITLE10=Titus Turner - That's All Right
TTITLE11=B. B. King - Never Trust A Woman
TTITLE12=Sonny Boy Williamson - Checkin' Up On My Baby
TTITLE13=Buddy Guy - Every Girl I See
TTITLE14=Jimmy Rogers - You Don't Know
TTITLE15=Bo Diddley - I'm A Man
EXTD=
EXTT0=
EXTT1=
EXTT2=
EXTT3=
EXTT4=
EXTT5=
EXTT6=
EXTT7=
EXTT8=
EXTT9=
EXTT10=
EXTT11=
EXTT12=
EXTT13=
EXTT14=
EXTT15=
PLAYORDER=
